<svg xmlns="http://www.w3.org/2000/svg" viewBox="0 0 415.89 406.57"><defs><style>.cls-1{fill:#fff;}.cls-2{fill:none;}.cls-3{fill:#ffa16d;}.cls-4{fill:#ff4279;}.cls-5{fill:#6200ea;}.cls-6{fill:#5cd3d8;}.cls-7{fill:#c8c95a;}.cls-8{fill:#6eeffd;}.cls-9{fill:#9c63f6;}.cls-10{fill:#d9c3fc;}.cls-11{fill:#62cbea;}</style></defs><g id="Layer_2" data-name="Layer 2"><g id="Layer_1-2" data-name="Layer 1"><path class="cls-1" d="M262.86,126.47c1.2-10.2,0-27.4,0-27.4.1-.7-8,23.7-20.8,38.7C250,130.17,255.46,128.17,262.86,126.47Z"/><path class="cls-1" d="M219.46,32.27c11.2-3.1,24.25-6,33.15-13.46-4.29-8-18.4-14.94-36-14.34-13.6-1.9-89.3,9.9-97.1,16.5-9.6,8.1-16.06,19.2-17,23.29-1.78.48-1.4,0-13.6,3.21C67.76,53.17,64.21,54,48.61,56c-2.6.6-8.31,6.77-8.91,8.37s.16,11.52.36,16.47c.36,5.74.21,11.37,4.7,15.6-.5,1.8-12.4,5.8-14.1,7.3s-2.2,1.7-3.6,6.2.68,11.4,2,18c-3.7,3-7,5.4-8.88,9.7-3.1,7.7,1.49,16.75-4.71,23.25-2,2.1-10,6.77-13.32,11.67s-4.23,21.11,8.25,28.86c6.7-8.2,19.68-23.88,102.18-23,26.5.3,32.9-29,39.1-36.3-4.2,5.7-13.1,9.5-25,12.5,12.9-28.1-.9-70.2,54.2-100.3,1.2-4.5-.9-9-1.5-11C177.86,37.57,195.26,35.67,219.46,32.27Z"/><path class="cls-1" d="M236.15,144.93c.14-.15.28-.3.41-.46A5.87,5.87,0,0,0,236.15,144.93Z"/><path class="cls-1" d="M255.76,117.17c-18.1,23.8-38.58,35.86-48.48,27.76-1.8-1.7-5.92-8.32-6.82-10.52-7.58,26.56.26,64.31,11.58,77.36.4-15.6,4.52-38.7,18.88-58.18,0,0,5.62-6.94,6.89-8.66C237.69,145.09,250.66,128.57,255.76,117.17Z"/><path class="cls-1" d="M53.86,120a50.8,50.8,0,0,1-12.3-.6,9.8,9.8,0,0,0-7.3,2.2c-1.5,1.2-1.8,3.4-.8,3.4.7-.8,9-3.1,15.8-3.4a30.34,30.34,0,0,0,4.2-.6C53.76,119.57,53.86,120,53.86,120Z"/><path class="cls-1" d="M76.76,71.47c-1.1,2.8-2.8,4.4-6.9,6.3.4-.6,6.1-5.2,6.4-12.7C77.76,66.77,77.76,69,76.76,71.47Z"/><path class="cls-1" d="M64.36,81.37c-.1-6.5-3.3-9.9-5.9-11.6-2.4-1.6-4.4-.4-6.1.6a6.92,6.92,0,0,0,2.1,3.6C56.46,76.07,58.26,74.27,64.36,81.37Z"/><path class="cls-1" d="M122.56,45.87c-5.6,7-12.1,4.5-16,11-1.1,1.9-6.1,5.6,1.1,4.1C118,58.77,121.26,50.17,122.56,45.87Z"/><path class="cls-1" d="M152.56,45.87c-10.3-6.2-18.9-5.9-23.9-2.7-4.7,8.8-3.2,15.7-3.2,15.7S141.86,56.17,152.56,45.87Z"/><path class="cls-1" d="M141.36,53.57s-15.2,9.5-24.3,10.4a15.09,15.09,0,0,0,4.7-6.2C125.16,56.07,141.36,53.57,141.36,53.57Z"/><path class="cls-1" d="M121,20.07c29.93-25.19,85.7-21.86,95.7-15.6C206.16,5.27,162.16,6.37,121,20.07Z"/><path class="cls-1" d="M178.82,153.88c-7.6,27.5-18.15,37-19.91,38s-6.37,4.15-15.24,2.53c15.5,28.4,20,82.27-4.21,128C160.86,297.43,192.32,230.38,178.82,153.88Z"/><path class="cls-1" d="M122.76,42.37c4.7-12,13.2-4.8,16.3-12.3.7-1.7,4.4-7.1-2.6-5C124.86,28.67,122.46,39.67,122.76,42.37Z"/><path class="cls-1" d="M75.65,242.22c10.45,2.84,32.58,13,45.41,29,16.5,16.6,15.82,38.24,1.72,58.54C125.74,296.94,110,266.17,75.65,242.22Z"/><path class="cls-1" d="M46.86,85.67c-2.4-2.1-3.1-2.4-2.1-8.7,1,1.3.8,1.2,1.6,4.1A12.08,12.08,0,0,1,46.86,85.67Z"/><path class="cls-1" d="M229.66,176c-3.18,28.7,7.2,63.35,33.6,91.75C241,256.07,202.21,238.1,229.66,176Z"/><path class="cls-1" d="M59.75,228.32c29.54,8.08,75.13,29.31,79.71,47.15C148.36,252.57,117.6,219.93,59.75,228.32Z"/><path class="cls-1" d="M140.76,233c-14.67-12.47-52-18.89-97.39-15.29C66.8,200.56,133.63,185.17,140.76,233Z"/><path class="cls-1" d="M282.56,58.07C322.82,43.33,348.81,53,370,88,347.06,74.17,318.46,63.17,282.56,58.07Z"/><path class="cls-1" d="M85,369.87c-7.13,10.64-2.45,21.6,2,24.1,5.3-8.4,8.57-22.49,33.77-46.49C104,355.88,92,359.47,85,369.87Z"/><path class="cls-1" d="M32.88,211.77c-11.55-5.48-12.11-17.44,19.29-20.24,13.5-1.2,36.69,1.8,36.69,1.8-11.6,1.3-26.1.34-37.4,3.44C29.76,203,32.88,211.77,32.88,211.77Z"/><path class="cls-1" d="M243.86,264.52c29.5,20.1,53.31,25.83,69.41,29.13C289.87,306.15,253.76,283.32,243.86,264.52Z"/><path class="cls-1" d="M252.61,230.17c-13.05-22.85-19.2-58.84-9.65-68.7,5.1-7.3,22.2-18.4,30,2.1C275.76,179,257.51,200.37,252.61,230.17Z"/><path class="cls-1" d="M249.16,210.77c1.4-18.1,1.9-35.4,17.8-43.2s8.6-27.9-6.2-26.2c-8.4.9-18,8.8-18.5,26.3C241.76,186,247.56,192.47,249.16,210.77Z"/><path class="cls-1" d="M241.19,313.82c-31.1-3.6-74.17.65-105.87,23.75C183.6,287.14,220.42,293.37,241.19,313.82Z"/><path class="cls-1" d="M259.58,241.09c-.87-19.2,18.28-50.22,22-56.72,2.2-3.9,4.2-9.3,3.9-13.7,0,0,6.2,3.6,7.9,8.5,7.8-11.1,19.7-10.6,25-5.4-2.7,12.2-6.9,29.5-19.3,39.9S275.08,220,259.58,241.09Z"/><path class="cls-1" d="M318.26,173.77c-3.4-11.7-23.7-11.1-27,6.4,1.2,4.1,4.7,14.3-5.4,26C286,206.17,304.86,213.57,318.26,173.77Z"/><path class="cls-1" d="M263.26,326.66c-75-18.82-156.77,15.08-171.52,79.91C139.24,394,182.86,328.46,263.26,326.66Z"/><path class="cls-2" d="M350.06,35.94a144.63,144.63,0,0,0-19.2-18.17A149.85,149.85,0,0,1,350.06,35.94Z"/><path class="cls-2" d="M360.15,54.16h0a16.16,16.16,0,0,0-1.3-5.06A16.57,16.57,0,0,1,360.15,54.16Z"/><path class="cls-1" d="M371.46,43.77c-14.7-15.8-23.13-22.33-40.6-27.64-17.11-5.2-55.39-8.49-71.23-3.88,4.15.09,21,5.61,16.73,10.21s-24.2,10-31.3,12.86c-12.4,5-22.07,8.61-28.5,17.25,74.91-8.26,115.78-16.69,140.6-.43l1.09.73c.65.45,1.29.91,1.91,1.4v-.05C377.85,67,389.1,84.43,390.46,90,394.86,84.17,388,61.57,371.46,43.77ZM360.15,54.16a16.57,16.57,0,0,0-1.29-5,16.16,16.16,0,0,1,1.3,5.06Z"/><path class="cls-1" d="M380.76,163.67c13.9-62-35.62-86.83-90.8-99.44,2.12,2.17,7.42,8.37,9.7,10.35C336.79,103.8,376.92,155.12,367.9,195,377.1,186.35,377.43,172.57,380.76,163.67Z"/><path class="cls-2" d="M242.36,83.37a50.5,50.5,0,0,1,7.72-3.11A51.57,51.57,0,0,0,242.36,83.37Z"/><path class="cls-1" d="M253.56,79.17c-.3-.3-6.1-5.4-20.8-2.9-15.1,2.5-25.5,12.5-25.5,12.5h.1l.45-.34a31.82,31.82,0,0,0-5.55,5.64c2.43,1.89,6.93,7.64,6.4,7.8,4.3-.7,5.1-3,10,0,7.1,4.3,8.37,12,7.2,15.8h.1c-1.3,1.2-3.5,1.7-6.4,1.7-10.8,1-12.9,6.3-12.9,6.3,4.2,4.6,9.73,8.72,15.93,7.52,5.5-1.2,11.67-5.42,14-9.12h-.09c5.79-13.7-9.48-27.07-19.38-30.17.52-.31,3.71-1.25,4.24-1.58,7.33-4.09,13.75-1.34,18.23,4.56,3.12-5.54-1.44-9.12-4.44-11.71a39.73,39.73,0,0,1,7.24-1.79c6.4,3.5,9.9,10.4,11.7,17.6,2,9.7-1.9,20-7.3,26.6,3.6-4,5.8-6,8.9-10.5h0c3.2-6.6,5.1-7.8,7.2-18.1C261.26,85.77,259,83.37,253.56,79.17Z"/><path class="cls-3" d="M222.56,122.37c-10.8,1-12.9,6.3-12.9,6.3h0a17.89,17.89,0,0,0,16.7,5.4c5.5-1.2,10.9-3.3,13.2-7-2.6.2-5.7-6.5-10.6-6.4C227.66,121.87,225.46,122.37,222.56,122.37Z"/><path class="cls-4" d="M232.36,85.17s.5-5.3-12.3.6a39.87,39.87,0,0,0-14.8,11.3c1.2,1.6,2.4,3.2,3.4,4.8,4.3-.7,8.1,0,13,3,7.1,4.3,7.1,11.3,7.2,15.8,4.9-.1,8,6.6,10.6,6.4,5.8-13.7-6.8-27.7-16.7-30.8,8.3-5.5,12.9-2.1,17.7,4.2C246.36,90,232.26,84.37,232.36,85.17Z"/><path class="cls-3" d="M265.86,129.47c1.2-10.2,0-27.4,0-27.4.1-.7-8,23.7-20.8,38.7C253,133.17,258.46,131.17,265.86,129.47Z"/><path class="cls-5" d="M205.26,97.07c.8,1.1,1.7,2.3,2.5,3.4a32.21,32.21,0,0,0,6.2-1.1c3.8-1,6.9-1.9,8.8-3.1,6-3.6,12.6-8.4,22.6-9.9C227.36,80.77,213,87,205.26,97.07Z"/><path class="cls-5" d="M222.46,35.27A80.79,80.79,0,0,0,253,19.17c-7.1-7.4-19.6-11.5-33.3-11.7-13.6-1.9-89.3,9.9-97.1,16.5-9.6,8.1-12.5,16-15.2,19.7a32.34,32.34,0,0,0,11.8-5.7c1.2,7.5-15,9.3-27.2,12.5-21.2,5.7-25.2,7.7-40.8,9.7-2.6.6-7.1,5.2-7.7,6.8s-.3,14.5-.4,16.9c-.1,7.6,4.7,11,4.7,11.9a5.36,5.36,0,0,1-.2,2.8c-.5,1.8-12.2,6.7-13.9,8.2s-2.2,1.7-3.6,6.2.4,10,1.7,16.6a30,30,0,0,0-8.6,11.1c-3.1,7.7-.9,17.2-7.1,23.7-2,2.1-6.5,4.4-9.8,9.3s-4.1,19.6,4.6,28.3c6.7-8.2,22.2-21.4,104.7-20.5,26.5.3,32.9-29,39.1-36.3-4.2,5.7-13.1,9.5-25,12.5,12.9-28.1-.9-70.2,54.2-100.3,1.2-4.5-.9-9-1.5-11C180.86,40.57,198.26,38.67,222.46,35.27Z"/><path class="cls-6" d="M257.06,104c2,9.7-1.9,20-7.3,26.6,3.6-4,5.8-6,8.9-10.5A58.35,58.35,0,0,0,257.06,104Z"/><path class="cls-7" d="M256.56,82.17s-7.6,2.2-11.2,4.2c6.4,3.5,9.9,10.4,11.7,17.6a58.35,58.35,0,0,1,1.6,16.1c3.2-6.6,5.1-7.8,7.2-18.1C264.26,88.77,262,86.37,256.56,82.17Z"/><path class="cls-4" d="M202.56,143.37a16.71,16.71,0,0,0,4,5.9c1.2,4.6,5.8,14,11.9,14.9,8.4,1.3,19.9-15.2,19.9-15.2a7.89,7.89,0,0,1,1.2-1.5h0c-1.4,1.7-3.3,2.4-4.7,6-14,16.7-21.5,44.5-21.9,60.1C205.46,200,200.86,169.27,202.56,143.37Z"/><path class="cls-5" d="M218.46,164.17c8.4,1.3,19.9-15.2,19.9-15.2a7.89,7.89,0,0,1,1.2-1.5c4.6-5.7,14.1-15.9,19.2-27.3-18.1,23.8-42.3,37.2-52.2,29.1C207.66,153.87,212.36,163.17,218.46,164.17Z"/><path class="cls-7" d="M56.86,123a50.8,50.8,0,0,1-12.3-.6,9.8,9.8,0,0,0-7.3,2.2c-1.5,1.2-1.8,3.4-.8,3.4.7-.8,9-3.1,15.8-3.4a30.34,30.34,0,0,0,4.2-.6C56.76,122.57,56.86,123,56.86,123Z"/><path class="cls-7" d="M79.76,74.47c-1.1,2.8-2.8,4.4-6.9,6.3.4-.6,6.1-5.2,6.4-12.7C80.76,69.77,80.76,72,79.76,74.47Z"/><path class="cls-8" d="M67.36,84.37c-.1-6.5-3.3-9.9-5.9-11.6-2.4-1.6-4.4-.4-6.1.6a6.92,6.92,0,0,0,2.1,3.6C59.46,79.07,61.26,77.27,67.36,84.37Z"/><path class="cls-9" d="M125.56,48.87c-5.6,7-12.1,4.5-16,11-1.1,1.9-6.1,5.6,1.1,4.1C121,61.77,124.26,53.17,125.56,48.87Z"/><path class="cls-3" d="M155.56,48.87c-10.3-6.2-18.9-5.9-23.9-2.7-4.7,8.8-3.2,15.7-3.2,15.7S144.86,59.17,155.56,48.87Z"/><path class="cls-8" d="M144.36,56.57s-15.2,9.5-24.3,10.4a15.09,15.09,0,0,0,4.7-6.2C128.16,59.07,144.36,56.57,144.36,56.57Z"/><path class="cls-7" d="M124,23.07c26.9-19.8,62.6-21.2,72.5-18.6,8.4,2.2,17.4,1.1,23.2,3C209.16,8.27,165.16,9.37,124,23.07Z"/><path class="cls-7" d="M251.76,18c-38.4,20.4-55.8,19.2-78.1,13.1,6.5,9.1,6.9,10.6,8.9,15.5,6.1-.5,45.3-6.7,70.3-27.5Z"/><path class="cls-5" d="M180.46,163.57c-7.6,27.5-21.1,32.8-21.1,32.8s-1.5,1.7-10.2,1.7c15.5,28.4,14.5,78.2-9.7,123.9C160.86,297.07,194,240.07,180.46,163.57Z"/><path class="cls-4" d="M125.76,45.37c4.7-12,13.2-4.8,16.3-12.3.7-1.7,4.4-7.1-2.6-5C127.86,31.67,125.46,42.67,125.76,45.37Z"/><path class="cls-3" d="M84.06,248.47s22.3,12.7,37.4,27.9c16.5,16.6,14.1,36.1,0,56.4C123.66,299.77,114.06,286.87,84.06,248.47Z"/><path class="cls-4" d="M97.86,266.17c22.1,31.2,24.3,59.5,23.7,66.6C133.56,306.37,110.06,280.47,97.86,266.17Z"/><path class="cls-8" d="M49.86,88.67c-2.4-2.1-3.1-2.4-2.1-8.7,1,1.3.8,1.2,1.6,4.1A12.08,12.08,0,0,1,49.86,88.67Z"/><path class="cls-5" d="M229.16,182c-1.6,19.8,10.7,60.4,37.1,88.8C244,259.07,211.06,248.57,229.16,182Z"/><path class="cls-8" d="M64.26,229.77c26.5,7.5,69.2,27.6,75.2,45.7C148.36,252.57,125.46,228.57,64.26,229.77Z"/><path class="cls-10" d="M90.06,318.87a8.21,8.21,0,0,0-.2-3.5c-2.6-10.5-15.4-13.9-24-8.5-7.5,4.7-11.2,15.4-6.6,23.4,4.4,7.8,15.1,11,23,6.4C88.46,333.07,91.26,325.77,90.06,318.87Z"/><path class="cls-10" d="M326.56,255.57c3.9-10.3-1.7-18.1-9.1-21.2-8.5-3.6-18.1.8-21.8,9a16.33,16.33,0,0,0,8.5,22.1C314.16,269.37,322.86,265.37,326.56,255.57Z"/><path class="cls-10" d="M415.86,281.57a6.69,6.69,0,0,0-.5-1.9,5.85,5.85,0,0,0-1-1.7l-.2-.3a8707687833365,8707687833365,0,0,1-1.4-1.4,6.78,6.78,0,0,0-7.8-.6,5,5,0,0,0-2.1,1.7,14,14,0,0,1-1,1.6,6.89,6.89,0,0,1-.3.8,4.71,4.71,0,0,0-.4,1.7,6.7,6.7,0,0,0,0,2,5.38,5.38,0,0,0,.9,2.5,5,5,0,0,0,1.7,2.1l.2.1.2.2,1.6,1a6.7,6.7,0,0,0,3.7.5,7.48,7.48,0,0,0,5.9-4.4A10.48,10.48,0,0,0,415.86,281.57Z"/><path class="cls-10" d="M53.66,357.67c-2.6-6.4-10-8.6-16.1-6.3a11.92,11.92,0,0,0-7.3,14.2,13.31,13.31,0,0,0,5.5,7.8c2.6,1.7,6.4,2.6,9.3,1.5a6.77,6.77,0,0,0,2.7-.7A13,13,0,0,0,53.66,357.67Z"/><path class="cls-10" d="M369.76,227.47v-1.1a4,4,0,0,0-.2-1.9,5.41,5.41,0,0,0-1.1-2.6l-.1-.1-1.3-1.3h0a3.51,3.51,0,0,0-.8-.5,5.58,5.58,0,0,1-.8-.5h-.1a12.09,12.09,0,0,0-1.8-.5h-1.9a5.92,5.92,0,0,0-1.9.5,29541654516207.3,29541654516207.3,0,0,0-1.6,1,17415375667099.41,17415375667099.41,0,0,0-1.4,1.4,7.84,7.84,0,0,0-1.1,1.8h0l-.5,1.8v.1a6.7,6.7,0,0,0,.5,3.7,5.39,5.39,0,0,0,.7,1.3,10.63,10.63,0,0,0,.9,1.1,5.33,5.33,0,0,0,2.3,1.6c.2.1.5.2.7.3a7.51,7.51,0,0,0,3.3.4,5.07,5.07,0,0,1,.9-.2,3.18,3.18,0,0,0,.9-.3l1.6-.8h.1a8,8,0,0,0,1.3-1.3A10.74,10.74,0,0,0,369.76,227.47Z"/><path class="cls-10" d="M42.76,314c-9,1.6-6.5,15.5,2.5,13.9S51.66,312.27,42.76,314Z"/><path class="cls-10" d="M384.46,250.37a3.15,3.15,0,0,0-.5-2.3c-1.7-6.9-9.7-9-15.4-5.5-4.9,3.1-7.3,10-4.3,15.3a11.3,11.3,0,0,0,15.1,4.2A11.19,11.19,0,0,0,384.46,250.37Z"/><path class="cls-10" d="M355.66,263.37a4.84,4.84,0,0,0-5.8-3.5,4.67,4.67,0,0,0-3.8,4.9,5,5,0,0,0,1.6,3.3,5.79,5.79,0,0,0,4.6,1.1A5,5,0,0,0,355.66,263.37Z"/><path class="cls-7" d="M140.76,233c-12.3-9.1-46.7-19.3-92.1-15.7C73.76,204.77,133.76,190.37,140.76,233Z"/><path class="cls-11" d="M245.36,86.37c3.6-2,10.9-4.1,11.2-4.2-.3-.3-6.1-5.4-20.8-2.9-15.1,2.5-25.5,12.5-25.5,12.5h.1c8.3-6.7,20.4-9.9,35-5.4Z"/><path class="cls-1" d="M168.14,125.13c-18.5,33.7-41.18,35.14-97.78,37.14-24.7.8-47.7,13.8-47.7,13.8s26.9-24,66.8-33.4S149.24,134.73,168.14,125.13Z"/><path class="cls-1" d="M167.84,93.37c-1.7,2.9-7.6,8.44-10.9,10.74-12.7,8.7-27.88,8.41-39.88,9.61-4.8.5-14.5,2.61-17.48,5.75,5.3,1,28.29,4.66,41.09,2.66C153.27,120.23,169.74,107.77,167.84,93.37Z"/><path class="cls-1" d="M161.56,84.47c-6.3,3.3-14.7,4.6-21.4,5.3-11.1,1.1-34.2,3.7-34.5,3.6-15.35,1.64-26.29,11.69-25.8,14,4.1-1.8,5.9-5,10.4-5.45,7.4-.6,14.5.8,21.9.8a11.65,11.65,0,0,1,4.9,1.42c5.2-.2,8.5,2.08,13.8,1.38,5.9-.8,14.6-4.1,19.7-6.5,6.8-3.3,12.6-12.2,15.7-14.7a18.53,18.53,0,0,1,5.2-4A58.69,58.69,0,0,0,161.56,84.47Z"/><path class="cls-1" d="M161.53,67.62c-7.9,3.3-25.27,13.75-33,17.35-9.9,4.6-13.9,6.3-22.8,8.4,2,0,23.7-2.5,34.4-3.6,6.7-.7,15.1-2,21.4-5.3a55.34,55.34,0,0,1,9.7-4.1,30.14,30.14,0,0,0,5.5-4.1c5.4-5.8,11.31-5,18.41-8.2.8-.3,6.84-1.62,7.64-1.92C188.28,63.42,169.73,63.85,161.53,67.62Z"/><path class="cls-8" d="M165.86,129.47c-18.5,33.7-35.9,33.8-92.5,35.8-24.7.8-50.7,10.8-50.7,10.8s29.9-21,69.8-30.4S147,139.07,165.86,129.47Z"/><path class="cls-5" d="M282.56,58.07c47.6-7.3,71.2,1.8,90.4,32.9C350.06,77.17,318.46,63.17,282.56,58.07Z"/><path class="cls-7" d="M88,372.87c-4.9,7.3-5.2,18.6-.8,21.1,5.3-8.4,8.7-22.7,33.9-46.7C104.16,356.67,95,362.47,88,372.87Z"/><path class="cls-9" d="M33,211.77c-9-7-4.2-15.9,27.2-18.7a193.09,193.09,0,0,1,28.7.1,224.52,224.52,0,0,0-34.4,6.6C32.76,206,33,211.77,33,211.77Z"/><path class="cls-9" d="M246.86,269.67c29.5,20.1,50.5,20.7,66.6,24C290.06,306.17,256.76,288.47,246.86,269.67Z"/><path class="cls-4" d="M252.76,230.17c-9.9-26.3-12.6-57.5-6.8-65.7,5.1-7.3,22.2-18.4,30,2.1C278.76,182,257.66,200.37,252.76,230.17Z"/><path class="cls-3" d="M252.16,213.77c1.4-18.1,1.9-35.4,17.8-43.2s8.6-27.9-6.2-26.2c-8.4.9-18,8.8-18.5,26.3C244.76,189,250.56,195.47,252.16,213.77Z"/><path class="cls-8" d="M242,314.47c-31.1-3.6-74.7,0-106.4,23.1C187.26,292,220.86,296.57,242,314.47Z"/><path class="cls-4" d="M168,96.17c-1.7,2.9-4.7,7-8,9.3-12.7,8.7-33.4,10-45.4,11.2-4.8.5-8.5,2.2-12,3.4,5.3,1,27.6,5.1,40.4,3.1C155.56,121.27,169.86,110.57,168,96.17Z"/><path class="cls-4" d="M164.56,87.47c-6.3,3.3-14.7,4.6-21.4,5.3-11.1,1.1-34.2,3.7-34.5,3.6-6.6,2.1-13.1,2.6-19.5,5.3s-8.4,5-8.4,5c-.3.3-.6.5-.9.8,4.1-1.8,8.9-2.1,13.4-2.5,7.4-.6,14.5.8,21.9.8,2.4,0,.5,3.3.5,3.3,5.2-.2,12.9.2,18.2-.5,5.9-.8,14.6-4.1,19.7-6.5,6.8-3.3,12.6-12.2,15.7-14.7a18.53,18.53,0,0,1,5.2-4A58.69,58.69,0,0,0,164.56,87.47Z"/><path class="cls-9" d="M298.66,71c50.1,17.7,98,34.7,84.1,96.7C375.86,109.87,328.16,101.27,298.66,71Z"/><path class="cls-5" d="M367.16,195.87c12.8-12,6.8-47.7-29.4-82C360.66,146.77,368.76,169,367.16,195.87Z"/><path class="cls-4" d="M259.46,241.87c2.1-15.6,21.4-48,25.1-54.5a22.67,22.67,0,0,0,2.9-12.7s5.2,3.6,6.9,8.5c7.8-11.1,21.7-11.6,27-6.4-2.7,12.2-6.9,29.5-19.3,39.9S275,220.77,259.46,241.87Z"/><path class="cls-3" d="M321.26,176.77c-3.4-11.7-23.7-11.1-27,6.4,1.2,4.1,4.7,14.3-5.4,26C289,209.17,307.86,216.57,321.26,176.77Z"/><path class="cls-5" d="M259.46,241.87c7.5-7.7,10.1-12.9,25.9-17.8,3.4-8.6-2.5-16.2-9.9-13C267.66,214.57,259.06,238.87,259.46,241.87Z"/><path class="cls-4" d="M333.86,20.77c-14.1-5-28.3-6.1-59.3-7.4l-1.3.2c3.6,1.5,12.6,5.7,8.3,10.3s-20.5,9.3-27.6,12.2c-12.4,5-25,9.1-36.4,16.5,78-8.6,121.1-14.4,145.6,4.7C362.36,43.87,336.66,22.87,333.86,20.77Z"/><path class="cls-5" d="M263.86,326.77c-78.8-14.3-145.7,17.9-171.9,79.8C139.46,394,183.46,328.57,263.86,326.77Z"/><path class="cls-3" d="M374.46,46.77c-14.7-15.8-39.8-25.7-40.6-26,2.8,2,28.4,23.1,29.3,36.4a41.72,41.72,0,0,0-5.6-3.7c20.9,12.9,31.4,31.4,32.9,37.5C394.86,85.17,391,64.57,374.46,46.77Z"/><path class="cls-4" d="M305.16,77.07a285.68,285.68,0,0,1,35,40.4c-.8-1.2-1.6-2.3-2.4-3.5,36.3,34.3,42.3,70,29.4,82,9.5-9,14.4-18.7,15.5-28.8C376.06,113.87,334.56,102.67,305.16,77.07Z"/><path class="cls-5" d="M205.26,97.07c.8,1.1,1.7,2.3,2.5,3.4a32.21,32.21,0,0,0,6.2-1.1c3.8-1,6.9-1.9,8.8-3.1,6-3.6,12.6-8.4,22.6-9.9C227.36,80.77,213,87,205.26,97.07Z"/><path class="cls-3" d="M195.86,66.27c-13.9-.9-30.6,3.6-34.5,5.3-7.9,3.3-22.1,12.8-29.8,16.4-9.9,4.6-13.9,6.3-22.8,8.4,2,0,23.7-2.5,34.4-3.6,6.7-.7,15.1-2,21.4-5.3a55.34,55.34,0,0,1,9.7-4.1,30.14,30.14,0,0,0,5.5-4.1c5.4-5.8,13.4-8.9,20.5-12.1.8-.3,1.5-.6,2.3-.9C200.26,66.27,198.06,66.37,195.86,66.27Z"/></g></g></svg>